<?xml version="1.0" encoding="UTF-8" standalone="no"?>
<svg width="160px" height="67px" viewBox="0 0 160 67" version="1.1" xmlns="http://www.w3.org/2000/svg" xmlns:xlink="http://www.w3.org/1999/xlink" xmlns:sketch="http://www.bohemiancoding.com/sketch/ns">
    <!-- Generator: Sketch 3.5.1 (25234) - http://www.bohemiancoding.com/sketch -->
    <title>logo</title>
    <desc>Created with Sketch.</desc>
    <defs>
        <path id="path-1" d="M0,1.1883 L159.839105,1.1883 L159.839105,68 L0,68"></path>
        <path id="path-3" d="M0,0.1883 L159.839105,0.1883 L159.839105,67 L0,67 L0,0.1883 Z"></path>
    </defs>
    <g id="Page-1" stroke="none" stroke-width="1" fill="none" fill-rule="evenodd" sketch:type="MSPage">
        <g id="Group" sketch:type="MSLayerGroup" transform="translate(0.000000, -1.000000)">
            <path d="M46.3381726,10.15801 C43.5638884,10.15801 41.2726042,10.55411 38.3491832,13.24861 L37.5475726,10.15801 L31.2312884,10.15801 L31.2312884,39.40991 L38.7220253,39.40991 L38.7220253,19.04561 C40.4404884,17.41701 42.5131516,17.12971 44.2451726,17.12971 C44.8315516,17.12971 45.5619832,17.20451 46.3381726,17.45101 L46.3381726,10.15801" id="Fill-1" fill="#007CB7" sketch:type="MSShapeGroup"></path>
            <path d="M78.8740695,10.15801 L71.27148,10.15801 L64.2315432,29.14701 L57.4441221,10.15801 L49.2449853,10.15801 L61.1301747,39.40991 L66.7431432,39.40991 L78.8740695,10.15801 Z" id="Fill-3" fill="#007CB7" sketch:type="MSShapeGroup"></path>
            <path d="M126.863763,33.40908 L126.863763,39.41008 L121.621942,39.41008 C115.925932,39.41008 113.532963,36.12228 113.532963,31.65808 L113.532963,16.18978 L109.211384,16.18978 L109.211384,10.15818 L113.532963,10.15818 L113.532963,3.41598 L120.928795,1.18898 L120.928795,10.15818 L127.743332,10.15818 L127.743332,16.18978 L120.928795,16.18978 L120.928795,29.41238 C120.928795,32.17318 121.949026,33.40908 124.584342,33.40908 L126.863763,33.40908" id="Fill-5" fill="#007CB7" sketch:type="MSShapeGroup"></path>
            <path d="M17.4713811,32.29609 L17.4713811,25.63549 L13.1921705,25.75789 C9.18581263,25.87349 7.39786526,27.41879 7.39786526,29.89059 C7.39786526,32.30289 9.05870737,34.15419 12.1431284,34.15419 C14.7309916,34.15419 16.4850442,33.16139 17.4713811,32.29609 M25.4620653,39.41059 L18.6119389,39.41059 L17.9984442,36.81129 C16.0884758,38.54019 13.4379074,40.02429 9.55187579,40.02429 C4.18972842,40.02429 0.000338947369,36.20099 0.000338947369,30.45159 C0.000338947369,24.38939 4.74560211,20.93669 12.2058337,20.68849 L17.4713811,20.50149 L17.4713811,19.84529 C17.4713811,16.31949 14.9157179,15.45419 11.8363811,15.45419 C9.21462316,15.45419 3.62368632,15.72449 3.62368632,15.72449 L3.62368632,10.15869 C3.62368632,10.15869 8.82991789,9.88839 13.3124968,9.88839 C20.5286863,9.88839 24.9078863,12.64749 24.9078863,20.31449 L24.9078863,31.67729 C24.9078863,35.88479 25.0265179,38.04719 25.4620653,39.41059" id="Fill-7" fill="#007CB7" sketch:type="MSShapeGroup"></path>
            <g id="Group-11">
                <mask id="mask-2" sketch:name="Clip 10" fill="white">
                    <use xlink:href="#path-1"></use>
                </mask>
                <g id="Clip-10"></g>
                <path d="M159.839614,24.72208 C159.839614,14.78048 153.382666,9.24358 145.230982,9.24358 C137.32334,9.24358 130.617266,14.96578 130.617266,24.97028 C130.617266,33.59438 136.018393,40.32298 145.168277,40.32298 C154.158856,40.32298 159.839614,33.56548 159.839614,24.72208 M152.257361,24.78158 C152.257361,30.28788 149.915235,34.59908 145.295382,34.59908 C140.790772,34.59908 138.141898,30.47318 138.141898,24.78158 C138.141898,19.34158 140.421319,15.09158 145.107266,15.09158 C149.667803,15.09158 152.257361,19.15628 152.257361,24.78158" id="Fill-9" fill="#007CB7" sketch:type="MSShapeGroup" mask="url(#mask-2)"></path>
            </g>
            <path d="M97.1474,32.29609 L97.1474,25.63549 L92.8664947,25.75789 C88.8601368,25.87349 87.0688,27.41879 87.0688,29.89059 C87.0688,32.30289 88.7364211,34.15419 91.8174526,34.15419 C94.4070105,34.15419 96.1610632,33.16139 97.1474,32.29609 M105.136389,39.41059 L98.2896526,39.41059 L97.6744632,36.81129 C95.7644947,38.54019 93.1139263,40.02429 89.2295895,40.02429 C83.8674421,40.02429 79.6746632,36.20099 79.6746632,30.45159 C79.6746632,24.38939 84.4216211,20.93669 91.8835474,20.68849 L97.1474,20.50149 L97.1474,19.84529 C97.1474,16.31949 94.5917368,15.45419 91.5140947,15.45419 C88.8906421,15.45419 83.2997053,15.72449 83.2997053,15.72449 L83.2997053,10.15869 C83.2997053,10.15869 88.5059368,9.88839 92.9868211,9.88839 C100.204705,9.88839 104.583905,12.64749 104.583905,20.31449 L104.583905,31.67729 C104.583905,35.88479 104.702537,38.04719 105.136389,39.41059" id="Fill-12" fill="#007CB7" sketch:type="MSShapeGroup"></path>
            <path d="M33.5746011,59.80753 L33.8881274,59.80753 C36.2607589,59.80753 37.9995589,58.95243 37.9995589,56.50103 C37.9995589,54.91153 36.8505274,53.67903 34.8592116,53.67903 L32.8136642,53.67903 L32.80858,67.93183 L30.4054432,67.93183 L30.4054432,51.75123 L35.4422011,51.75123 C39.0604642,51.75123 40.5298011,54.03603 40.5298011,56.55203 C40.5298011,58.96943 39.0435168,60.43313 37.2267589,61.05873 L41.8008537,67.93183 L38.7842221,67.93183 L33.5746011,59.80753" id="Fill-14" fill="#221F20" sketch:type="MSShapeGroup"></path>
            <path d="M19.9270547,58.40248 L25.6281495,58.39908 L25.6281495,60.49178 L19.9270547,60.49178 L19.9236653,65.83998 L26.7737916,65.83998 L26.7737916,67.93438 L17.4646021,67.93438 L17.4646021,51.75378 L26.5297495,51.75038 L26.5297495,53.84478 L19.9287495,53.84478 L19.9270547,58.40248 Z" id="Fill-16" fill="#221F20" sketch:type="MSShapeGroup"></path>
            <path d="M49.7742516,53.86297 L49.7742516,67.93217 L47.3117989,67.93217 L47.3117989,53.86297 L42.7936305,53.86297 L42.7936305,51.74817 L54.2958095,51.74817 L54.2958095,53.86297 L49.7742516,53.86297 Z" id="Fill-18" fill="#221F20" sketch:type="MSShapeGroup"></path>
            <path d="M59.5294958,58.40248 L65.2322853,58.39908 L65.2322853,60.49178 L59.5294958,60.49178 L59.5278011,65.83998 L66.3779274,65.83998 L66.3779274,67.93438 L57.0687379,67.93438 L57.0687379,51.75378 L66.1321905,51.75038 L66.1321905,53.84478 L59.5311905,53.84478 L59.5294958,58.40248 Z" id="Fill-23" fill="#221F20" sketch:type="MSShapeGroup"></path>
            <path d="M137.733975,62.9476 L137.733975,51.7531 L140.098133,51.7531 L140.098133,67.932 L138.381364,67.932 L129.990722,56.3567 L129.990722,67.932 L127.629954,67.932 L127.629954,51.7531 L129.624659,51.7531 L137.733975,62.9476 Z" id="Fill-25" fill="#221F20" sketch:type="MSShapeGroup"></path>
            <path d="M146.644901,67.93064 L144.279048,67.93064 L144.279048,51.75004 L146.270364,51.75004 L154.381375,62.94624 L154.381375,51.75004 L156.747227,51.75004 L156.747227,67.93064 L155.030459,67.93064 L146.644901,56.35364 L146.644901,67.93064 Z" id="Fill-27" fill="#221F20" sketch:type="MSShapeGroup"></path>
            <path d="M118.003509,55.49038 L115.630878,62.00308 L120.381225,62.00308 L118.003509,55.49038 Z M114.875025,64.06858 L113.465004,67.93098 L110.846636,67.93098 L117.230709,51.61438 L118.959341,51.61438 L125.263762,67.93098 L122.542015,67.93098 L121.133688,64.06858 L114.875025,64.06858 Z" id="Fill-29" fill="#221F20" sketch:type="MSShapeGroup"></path>
            <path d="M95.0628737,56.5488 L94.0409474,67.932 L91.5005368,67.932 L93.1969684,51.7514 L95.3611474,51.7514 L100.194537,61.897 L104.861842,51.7514 L107.027716,51.7514 L108.719063,67.932 L106.215937,67.932 L105.155032,56.2989 L100.628389,66.1436 L99.6335789,66.1436 L95.0628737,56.5488 Z" id="Fill-31" fill="#221F20" sketch:type="MSShapeGroup"></path>
            <path d="M84.1601232,51.30294 C86.2870179,51.30294 88.1037758,52.26344 88.5799968,52.57624 L87.7122916,54.50744 C87.1140495,54.14024 85.6667442,53.41094 84.1923232,53.41094 C82.4281021,53.41094 81.3282179,54.17084 81.3282179,55.51894 C81.3282179,58.99544 89.3782179,57.08634 89.3782179,63.15364 C89.3782179,65.91444 87.1886179,67.92894 83.3517337,67.92894 L79.3301232,67.92894 L80.2876495,65.80904 L83.2822495,65.80904 C85.3786389,65.80904 86.7971337,65.02194 86.7971337,63.34064 C86.7971337,59.21814 78.7793337,61.39584 78.7793337,55.69744 C78.7793337,53.02844 80.8909758,51.30294 84.1601232,51.30294" id="Fill-33" fill="#221F20" sketch:type="MSShapeGroup"></path>
            <path d="M71.9620853,65.8087 L78.3681905,65.8087 L77.4123589,67.9303 L69.5030221,67.9303 L69.5030221,51.7514 L71.96378,51.7514 L71.9620853,65.8087 Z" id="Fill-35" fill="#221F20" sketch:type="MSShapeGroup"></path>
            <g id="Group-22" transform="translate(0.000000, 1.000000)">
                <mask id="mask-4" sketch:name="Clip 21" fill="white">
                    <use xlink:href="#path-3"></use>
                </mask>
                <g id="Clip-21"></g>
                <path d="M3.09255579,50.67881 L8.29031368,50.67881 C12.0712716,50.67881 13.5558611,52.56071 13.5558611,54.71461 C13.5558611,56.37551 12.4881768,57.48391 11.4357453,58.06021 C12.7322189,58.55831 14.3201874,59.63441 14.3201874,62.14871 C14.3201874,64.68681 12.5678295,67.00051 8.24964,67.00051 L3.09255579,67.00051 L3.09255579,50.67881 Z M5.46518737,65.01661 L8.19540842,65.01321 C10.3239979,65.01321 11.8187558,64.05951 11.8187558,62.31871 C11.8187558,60.11551 9.93590316,59.20771 7.55479789,59.20771 L6.80911368,59.20771 L7.66156632,57.30201 C8.91736632,57.30201 11.0866295,57.09631 11.0866295,54.78771 C11.0866295,53.71331 10.3816189,52.62701 8.04118737,52.62701 L5.46518737,52.62701 L5.46518737,65.01661 L5.46518737,65.01661 Z" id="Fill-20" fill="#221F20" sketch:type="MSShapeGroup" mask="url(#mask-4)"></path>
            </g>
        </g>
    </g>
</svg>